<svg height="512pt" viewBox="0 0 512 512.326" width="512pt" xmlns="http://www.w3.org/2000/svg"><path d="M470.086 66.09a61.013 61.013 0 0122.82-14.703 26.133 26.133 0 0019.09-21.82A26.133 26.133 0 00499.203 3.55 25.724 25.724 0 00479.56.863a109.867 109.867 0 00-46.48 28.348 99.546 99.546 0 00-16.114 23.39c-.938.665-1.86 1.356-2.79 2.02C320.73-18.8 188.997-18.094 96.345 56.328l-.547-4.164A17.001 17.001 0 0091 42.496L53.54 5.062a12.799 12.799 0 00-21.837 9.028l-.058 17.34-17.36.058a12.8 12.8 0 00-9.02 21.844l37.446 37.43a17.018 17.018 0 009.644 4.812l4.137.57c-74.508 92.844-75.058 224.836-1.32 318.293l-1.852 2a103.59 103.59 0 00-23.988 16.5 110.055 110.055 0 00-28.254 46.434c-3.77 13.926 4.461 28.27 18.387 32.04 13.93 3.773 28.273-4.462 32.043-18.388l.062-.214a62.003 62.003 0 0114.746-22.895 91.41 91.41 0 0128.868-14.941c99.242 80.453 242.629 75.351 335.906-11.946l16.894 16.887-14.789 14.79a13.265 13.265 0 00-3.41 12.796 12.91 12.91 0 009.266 9.219l56.558 14.914c1.086.289 2.204.433 3.329.437 4.109 0 7.992-1.902 10.507-5.152a13.271 13.271 0 002.344-11.465l-14.926-56.625a12.927 12.927 0 00-9.23-9.277 13.283 13.283 0 00-12.801 3.414l-14.789 14.781-16.887-16.89c87.324-93.282 92.422-236.696 11.946-335.946a90.803 90.803 0 0114.984-28.82zm12.039 383.754l11.48 43.52-43.52-11.485zM163.34 388.789a162.213 162.213 0 01-37.676-36.797 1831.082 1831.082 0 0128.5-34.441 120.223 120.223 0 0072.191 54.066 38.46 38.46 0 01-33.714 16.446c-10.282-.145-19.985.152-29.301.726zm-24.746 2.379a293.363 293.363 0 00-52.38 11.605 1952.697 1952.697 0 0128.356-37.043 179.263 179.263 0 0024.032 25.438zm15.23-135.16a101.528 101.528 0 0124.27-66.055l36.386 36.387a1626.286 1626.286 0 00-55.851 60.074 100.544 100.544 0 01-4.805-30.406zm73.106-17.227l46.523 46.524a33.667 33.667 0 01-17.23 4.836c-18.852 0-34.133-15.282-34.133-34.133a33.695 33.695 0 014.84-17.227zm58.562 34.508l-46.539-46.559a33.777 33.777 0 0117.27-4.855 34.132 34.132 0 0134.132 34.133 33.74 33.74 0 01-4.863 17.281zm-59.082-59.094l-36.27-36.293a101.545 101.545 0 0166.083-24.293 100.412 100.412 0 0129.398 4.473 1570.051 1570.051 0 00-59.21 56.113zm29.813-77.652a118.46 118.46 0 00-78.149 29.285l-30.164-30.14c51.594-46.747 127.344-55.149 187.93-20.844a1534.262 1534.262 0 00-35.711 30.3 117.485 117.485 0 00-43.906-8.601zm-90.196 41.336c-29.687 33.851-37.511 81.652-20.164 123.203a1661.72 1661.72 0 00-30.039 35.883c-35.168-60.73-27.074-137.227 20.028-189.254zm67.907 177.969a102.952 102.952 0 01-67.907-51.942 1568.113 1568.113 0 0139.254-43.297c2.399 26.356 24.477 46.551 50.942 46.602 1.23 0 2.433-.106 3.644-.191a325.969 325.969 0 00-25.933 48.828zm26.214-150.844a1493.077 1493.077 0 0142.985-39.73 102.995 102.995 0 0152.906 68.472 330.972 330.972 0 00-48.828 25.906c.094-1.203.187-2.414.187-3.644-.023-26.727-20.601-48.942-47.25-51.004zm111.696 21.137a120.342 120.342 0 00-55.031-72.848 1622.991 1622.991 0 0134.132-28.809 162.342 162.342 0 0138.032 38.598c-.598 9.387-.852 19.14-.735 29.3a38.805 38.805 0 01-16.398 33.759zm19.625-87.653a178.503 178.503 0 00-26.762-25.011c13.016-10.368 26.14-20.555 39.441-30.43a299.41 299.41 0 00-12.707 55.414zM256.223 17.074a238.468 238.468 0 01143.53 48.028 1464.545 1464.545 0 00-49.75 38.203C282.087 61.508 194.689 69.78 135.82 123.59l-34.988-34.988-1.707-12.348a237.948 237.948 0 01157.098-59.18zM54.753 78.668L24.587 48.52h11.34c7.058-.028 12.773-5.743 12.8-12.797V24.39l30.141 30.12 2.11 15.15a253.86 253.86 0 00-11.095 11.09zm21.665 20.25l12.355 1.707 34.989 34.988c-54.211 59.309-62.13 147.528-19.348 215.543a1671.522 1671.522 0 00-38.09 49.801c-68.992-90.238-64.77-216.61 10.094-302.039zM54.23 457.805a76.445 76.445 0 00-19.097 30.523h-.059a9.112 9.112 0 01-11.094 6.317 9.228 9.228 0 01-4.105-2.34 8.907 8.907 0 01-2.305-8.625 93.592 93.592 0 0123.809-38.625c15.687-15.684 68.773-39.95 145.64-39.95 1.758 0 3.524.012 5.297.04 22.532 1.085 43.442-11.688 52.762-32.23l1.215-2.74c10-22.894 23.695-54.245 46.625-77.206l.187-.18c22.715-22.648 54.137-36.5 77.22-46.66l2.753-1.203c20.613-9.227 33.426-30.188 32.23-52.738-1.152-79.75 23.829-134.825 39.837-150.88a93.02 93.02 0 0138.742-23.89 8.738 8.738 0 016.738.93 9.06 9.06 0 01-2.242 16.62l-.172.052a76.861 76.861 0 00-30.215 19.066c-11.785 11.773-35.758 60.977-34.594 137.828 1.157 29.75-15.812 57.234-42.925 69.531l-3.329 1.418c-22.722 10.051-50.992 22.559-71.183 42.664-.043.043-.102.051-.145.094-.043.043-.05.102-.093.145-20.48 20.48-33.461 50.082-42.907 71.68l-1.175 2.706c-12.012 26.786-38.922 43.754-68.27 43.051h-1.27c-76.828-1.117-126.097 22.852-137.855 34.602zm364.125-201.797a160.763 160.763 0 01-41.812 108.305l-30.098-30.106a119.57 119.57 0 0025.934-50.559 778.973 778.973 0 0111.95-5.34l2.925-1.245a88.074 88.074 0 0031.027-22.864c.008.606.074 1.203.074 1.809zm-94.12 55.953a159.25 159.25 0 0127-17.918 102.39 102.39 0 01-16.864 28.031zm-12.075 12.05l10.145 10.153a102.31 102.31 0 01-28.16 16.906 156.734 156.734 0 0118.015-27.058zm-34.894 63.02l1.187-2.722c1.707-3.875 3.5-7.954 5.367-12.094a119.544 119.544 0 0050.602-25.942l30.098 30.106a160.806 160.806 0 01-108.297 41.762c-.578 0-1.168-.067-1.758-.067a88.282 88.282 0 0022.8-31.043zm-21.043 107.91a238.938 238.938 0 01-140.91-46.164 292.904 292.904 0 0176.519-8.535 95.068 95.068 0 0038.11-7.082 182.51 182.51 0 0026.28 2.05 177.747 177.747 0 00120.321-46.765l42.437 42.438a237.225 237.225 0 01-162.757 64.058zm238.933-238.933a237.216 237.216 0 01-64.066 162.808l-42.438-42.437a177.755 177.755 0 0046.774-120.371 173.256 173.256 0 00-2.082-26.367 96.71 96.71 0 007.125-38.008 292.262 292.262 0 018.48-76.594 238.701 238.701 0 0146.207 140.969zm0 0"/></svg>